<svg width="14" height="12" viewBox="0 0 14 12" fill="none" xmlns="http://www.w3.org/2000/svg">
<path opacity="0.25" d="M12.7576 4.32797L8.88442 3.79374L7.14817 0.187695C7.14817 0.0541382 6.88106 0.0541382 6.7475 0.0541382L6.61395 0.187695L4.8777 3.66018L1.00454 4.19441C0.870982 4.19441 0.737427 4.32797 0.737427 4.59508C0.737427 4.72864 0.737425 4.72864 0.870982 4.8622L3.67568 7.53334L3.0079 11.4065C3.0079 11.5401 3.14146 11.8072 3.27501 11.8072C3.40857 11.8072 3.40857 11.8072 3.54213 11.8072L7.01462 10.0709L10.4871 11.8072C10.6207 11.9407 10.8878 11.8072 10.8878 11.6736V11.5401L10.22 7.6669L13.0247 4.99576C13.1583 4.8622 13.1583 4.72864 13.0247 4.59508C12.8911 4.32797 12.7576 4.32797 12.7576 4.32797Z" fill="#AEAEAE"/>
</svg>
