<svg width="13" height="12" viewBox="0 0 13 12" fill="none" xmlns="http://www.w3.org/2000/svg">
<path d="M12.3861 4.32815L8.51296 3.79392L6.77671 0.321436C6.77671 0.0543213 6.5096 0.0543213 6.37604 0.0543213L6.24249 0.187879L4.50624 3.66037L0.633082 4.1946C0.499525 4.1946 0.365967 4.32815 0.365967 4.59527C0.365967 4.72883 0.365967 4.72882 0.499525 4.86238L3.30423 7.53353L2.63644 11.4067C2.63644 11.5402 2.77 11.8074 2.90355 11.8074C3.03711 11.8074 3.03711 11.8074 3.17067 11.8074L6.64316 10.0711L10.1156 11.8074C10.2492 11.9409 10.5163 11.8074 10.5163 11.6738V11.5402L9.84853 7.66708L12.6532 4.99594C12.7868 4.86238 12.7868 4.72883 12.6532 4.59527C12.5197 4.32815 12.3861 4.32815 12.3861 4.32815Z" fill="#FFC014"/>
</svg>
